<?xml version="1.0" encoding="UTF-8" standalone="no"?>
<!-- Created with Inkscape (http://www.inkscape.org/) -->

<svg
   width="26.870819mm"
   height="32.086853mm"
   viewBox="0 0 26.870819 32.086853"
   version="1.1"
   id="svg1"
   inkscape:export-filename="beard.svg"
   inkscape:export-xdpi="96"
   inkscape:export-ydpi="96"
   xmlns:inkscape="http://www.inkscape.org/namespaces/inkscape"
   xmlns:sodipodi="http://sodipodi.sourceforge.net/DTD/sodipodi-0.dtd"
   xmlns="http://www.w3.org/2000/svg"
   xmlns:svg="http://www.w3.org/2000/svg">
  <sodipodi:namedview
     id="namedview1"
     pagecolor="#ffffff"
     bordercolor="#000000"
     borderopacity="0.25"
     inkscape:showpageshadow="2"
     inkscape:pageopacity="0.0"
     inkscape:pagecheckerboard="0"
     inkscape:deskcolor="#d1d1d1"
     inkscape:document-units="mm">
    <inkscape:page
       x="0"
       y="0"
       width="26.870819"
       height="32.086853"
       id="page2"
       margin="0"
       bleed="0" />
  </sodipodi:namedview>
  <defs
     id="defs1" />
  <g
     inkscape:label="Livello 1"
     inkscape:groupmode="layer"
     id="layer1"
     transform="translate(-99.793467,-16.826425)">
    <g
       id="g70"
       transform="matrix(0.26458333,0,0,0.26458333,95.067173,19.282701)">
		
		
		
		
	<path
   style="fill:#fddbaf"
   d="m 111.66616,45.51503 c -0.273,-0.038 -0.545,-0.054 -0.815,-0.057 -1.384,-41.936 -26.042995,-47.683 -42.477995,-47.683 -16.438,0 -40.56,5.747 -41.944,47.683 -0.271,0.003 -0.542,0.019 -0.815,0.057 -4.969,0.682 -8.395,7.063 -7.649,14.253 0.743,7.189 5.379,12.465 10.349,11.784 0.102,-0.013 0.204,-0.034 0.306,-0.054 2.774,13.32 7.426,22.085 9.912,25.257 3.396,4.332 20.882,13.565 29.843,13.565 8.959,0 26.981,-9.233 30.377,-13.565 2.485995,-3.172 7.137995,-11.936 9.913005,-25.257 0.102,0.018 0.203,0.041 0.30699,0.054 4.971,0.681 9.602,-4.595 10.349,-11.784 0.742,-7.191 -2.684,-13.572 -7.655,-14.253 z"
   id="path49" />
<path
   style="fill:#121011"
   d="m 28.934165,55.21603 c 0,0 4.063,-0.383 5.635,-19.865 2.301,-28.515 19.419,-9.015 35.693,-8.83 15.865,0.18 31.321995,-20.051 34.867005,9.196 2.03499,16.79 5.208,15.326 5.208,15.326 0,0 15.598,-57.883 -40.558005,-58.232 -59.489,-0.366 -40.845,62.405 -40.845,62.405 z"
   id="path50" />
<path
   style="fill:#272627"
   d="m 28.934165,53.12403 c 0,0 4.063,-0.385 5.635,-19.867 2.301,-28.514 19.419,-9.014 35.693,-8.829 15.865,0.18 31.321995,-20.051 34.867005,9.196 2.03499,16.789 5.208,15.326 5.208,15.326 0,0 15.598,-57.883 -40.558005,-58.232 -59.489,-0.366 -40.845,62.406 -40.845,62.406 z"
   id="path51" />
<g
   id="g52"
   transform="translate(-50.771835,-251.26497)">
			
		</g>
</g>
  </g>
</svg>
